<?xml version="1.0" standalone="no"?>
<!DOCTYPE svg PUBLIC "-//W3C//DTD SVG 20010904//EN"
 "http://www.w3.org/TR/2001/REC-SVG-20010904/DTD/svg10.dtd">
<svg version="1.0" xmlns="http://www.w3.org/2000/svg"
 width="180.000000pt" height="180.000000pt" viewBox="0 0 180.000000 180.000000"
 preserveAspectRatio="xMidYMid meet">
<metadata>
Created by potrace 1.11, written by Peter Selinger 2001-2013
</metadata>
<g transform="translate(0.000000,180.000000) scale(0.100000,-0.100000)"
fill="#000000" stroke="none">
<path d="M1234 1543 c-98 -135 -212 -292 -252 -347 -41 -56 -79 -104 -85 -107
-7 -4 -29 -10 -50 -13 -50 -9 -112 -71 -127 -126 -25 -95 20 -186 112 -225 52
-21 96 -19 148 8 81 40 127 147 95 222 -11 29 -5 47 139 370 177 397 206 465
203 465 -2 0 -84 -111 -183 -247z"/>
<path d="M770 1742 c-141 -20 -327 -105 -437 -201 -478 -414 -383 -1172 182
-1447 472 -229 1034 2 1207 496 36 102 46 168 46 295 -1 230 -81 425 -253 612
-32 35 -29 38 -84 -90 l-20 -48 40 -52 c49 -64 103 -173 124 -252 9 -33 18
-105 20 -160 12 -390 -301 -716 -690 -718 -420 -2 -750 364 -702 777 15 134
88 296 174 392 86 94 224 177 353 211 63 16 232 23 290 11 22 -4 32 5 77 66
57 77 59 82 41 84 -7 0 -47 8 -88 17 -67 14 -208 18 -280 7z"/>
</g>
</svg>
